HIERARCHY
ROOT mixamorig:Hips
{
	OFFSET -0.000008 104.274872 1.554316
	CHANNELS 6 Xposition Yposition Zposition Xrotation Yrotation Zrotation
	JOINT mixamorig:Spine
	{
		OFFSET -0.000005 10.181595 0.131519
		CHANNELS 6 Xposition Yposition Zposition Xrotation Yrotation Zrotation
		JOINT mixamorig:Spine1
		{
			OFFSET -0.000000 9.893959 -1.470707
			CHANNELS 6 Xposition Yposition Zposition Xrotation Yrotation Zrotation
			JOINT mixamorig:Spine2
			{
				OFFSET -0.000000 9.220757 -1.370641
				CHANNELS 6 Xposition Yposition Zposition Xrotation Yrotation Zrotation
				JOINT mixamorig:Neck
				{
					OFFSET 0.000001 16.740417 -2.049036
					CHANNELS 6 Xposition Yposition Zposition Xrotation Yrotation Zrotation
					JOINT mixamorig:Head
					{
						OFFSET 0.000000 9.617874 1.685006
						CHANNELS 6 Xposition Yposition Zposition Xrotation Yrotation Zrotation
						JOINT mixamorig:HeadTop_End
						{
							OFFSET 0.000002 22.037354 7.501101
							CHANNELS 6 Xposition Yposition Zposition Xrotation Yrotation Zrotation
							End Site
							{
								OFFSET 0.000168 2310.654297 -282.823242
							}
						}
					}
				}
				JOINT mixamorig:RightShoulder
				{
					OFFSET -4.569970 11.014908 -2.160885
					CHANNELS 6 Xposition Yposition Zposition Xrotation Yrotation Zrotation
					JOINT mixamorig:RightArm
					{
						OFFSET -10.592851 -0.524811 -2.232101
						CHANNELS 6 Xposition Yposition Zposition Xrotation Yrotation Zrotation
						JOINT mixamorig:RightForeArm
						{
							OFFSET -27.841511 0.000031 -0.000004
							CHANNELS 6 Xposition Yposition Zposition Xrotation Yrotation Zrotation
							JOINT mixamorig:RightHand
							{
								OFFSET -28.328831 -0.000015 0.000015
								CHANNELS 6 Xposition Yposition Zposition Xrotation Yrotation Zrotation
								JOINT mixamorig:RightHandThumb1
								{
									OFFSET -2.464806 -1.573990 2.681852
									CHANNELS 6 Xposition Yposition Zposition Xrotation Yrotation Zrotation
									JOINT mixamorig:RightHandThumb2
									{
										OFFSET -3.215179 -1.872803 1.924282
										CHANNELS 6 Xposition Yposition Zposition Xrotation Yrotation Zrotation
										JOINT mixamorig:RightHandThumb3
										{
											OFFSET -2.654831 -1.527969 1.512609
											CHANNELS 6 Xposition Yposition Zposition Xrotation Yrotation Zrotation
											JOINT mixamorig:RightHandThumb4
											{
												OFFSET -2.018814 -1.152008 1.108052
												CHANNELS 6 Xposition Yposition Zposition Xrotation Yrotation Zrotation
												End Site
												{
													OFFSET -188.809540 -114.533607 132.431396
												}
											}
										}
									}
								}
								JOINT mixamorig:RightHandIndex1
								{
									OFFSET -9.108284 -0.517868 2.259835
									CHANNELS 6 Xposition Yposition Zposition Xrotation Yrotation Zrotation
									JOINT mixamorig:RightHandIndex2
									{
										OFFSET -3.699989 0.000000 0.001215
										CHANNELS 6 Xposition Yposition Zposition Xrotation Yrotation Zrotation
										JOINT mixamorig:RightHandIndex3
										{
											OFFSET -2.850006 0.000031 -0.000522
											CHANNELS 6 Xposition Yposition Zposition Xrotation Yrotation Zrotation
											JOINT mixamorig:RightHandIndex4
											{
												OFFSET -2.772186 -0.000015 -0.000020
												CHANNELS 6 Xposition Yposition Zposition Xrotation Yrotation Zrotation
												End Site
												{
													OFFSET -277.218445 0.000000 -0.050231
												}
											}
										}
									}
								}
								JOINT mixamorig:RightHandMiddle1
								{
									OFFSET -9.532516 -0.000031 -0.000023
									CHANNELS 6 Xposition Yposition Zposition Xrotation Yrotation Zrotation
									JOINT mixamorig:RightHandMiddle2
									{
										OFFSET -3.700005 -0.000015 0.003713
										CHANNELS 6 Xposition Yposition Zposition Xrotation Yrotation Zrotation
										JOINT mixamorig:RightHandMiddle3
										{
											OFFSET -2.949974 0.000015 -0.002054
											CHANNELS 6 Xposition Yposition Zposition Xrotation Yrotation Zrotation
											JOINT mixamorig:RightHandMiddle4
											{
												OFFSET -2.946640 0.000000 -0.000156
												CHANNELS 6 Xposition Yposition Zposition Xrotation Yrotation Zrotation
												End Site
												{
													OFFSET -294.664337 0.000000 -0.113670
												}
											}
										}
									}
								}
								JOINT mixamorig:RightHandRing1
								{
									OFFSET -9.103600 -0.043076 -1.865134
									CHANNELS 6 Xposition Yposition Zposition Xrotation Yrotation Zrotation
									JOINT mixamorig:RightHandRing2
									{
										OFFSET -3.379288 0.000000 -0.001055
										CHANNELS 6 Xposition Yposition Zposition Xrotation Yrotation Zrotation
										JOINT mixamorig:RightHandRing3
										{
											OFFSET -2.889687 -0.000015 0.000379
											CHANNELS 6 Xposition Yposition Zposition Xrotation Yrotation Zrotation
											JOINT mixamorig:RightHandRing4
											{
												OFFSET -2.638809 -0.000015 0.000941
												CHANNELS 6 Xposition Yposition Zposition Xrotation Yrotation Zrotation
												End Site
												{
													OFFSET -263.880371 0.000000 0.516020
												}
											}
										}
									}
								}
								JOINT mixamorig:RightHandPinky1
								{
									OFFSET -8.076683 -0.486710 -3.806280
									CHANNELS 6 Xposition Yposition Zposition Xrotation Yrotation Zrotation
									JOINT mixamorig:RightHandPinky2
									{
										OFFSET -3.600014 -0.000015 -0.003747
										CHANNELS 6 Xposition Yposition Zposition Xrotation Yrotation Zrotation
										JOINT mixamorig:RightHandPinky3
										{
											OFFSET -2.099983 0.000000 -0.005739
											CHANNELS 6 Xposition Yposition Zposition Xrotation Yrotation Zrotation
											JOINT mixamorig:RightHandPinky4
											{
												OFFSET -2.115768 -0.000031 -0.003680
												CHANNELS 6 Xposition Yposition Zposition Xrotation Yrotation Zrotation
												End Site
												{
													OFFSET -211.577087 0.000000 -0.350686
												}
											}
										}
									}
								}
							}
						}
					}
				}
				JOINT mixamorig:LeftShoulder
				{
					OFFSET 4.570447 11.014725 -2.160855
					CHANNELS 6 Xposition Yposition Zposition Xrotation Yrotation Zrotation
					JOINT mixamorig:LeftArm
					{
						OFFSET 10.592371 -0.524597 -2.232119
						CHANNELS 6 Xposition Yposition Zposition Xrotation Yrotation Zrotation
						JOINT mixamorig:LeftForeArm
						{
							OFFSET 27.841532 -0.000031 0.000026
							CHANNELS 6 Xposition Yposition Zposition Xrotation Yrotation Zrotation
							JOINT mixamorig:LeftHand
							{
								OFFSET 28.328846 -0.000061 0.000022
								CHANNELS 6 Xposition Yposition Zposition Xrotation Yrotation Zrotation
								JOINT mixamorig:LeftHandThumb1
								{
									OFFSET 2.466141 -1.576172 2.681732
									CHANNELS 6 Xposition Yposition Zposition Xrotation Yrotation Zrotation
									JOINT mixamorig:LeftHandThumb2
									{
										OFFSET 3.217812 -1.872070 1.916482
										CHANNELS 6 Xposition Yposition Zposition Xrotation Yrotation Zrotation
										JOINT mixamorig:LeftHandThumb3
										{
											OFFSET 2.656029 -1.528778 1.514513
											CHANNELS 6 Xposition Yposition Zposition Xrotation Yrotation Zrotation
											JOINT mixamorig:LeftHandThumb4
											{
												OFFSET 2.020889 -1.154053 1.115139
												CHANNELS 6 Xposition Yposition Zposition Xrotation Yrotation Zrotation
												End Site
												{
													OFFSET 190.885437 -115.081749 130.048782
												}
											}
										}
									}
								}
								JOINT mixamorig:LeftHandIndex1
								{
									OFFSET 9.109314 -0.518021 2.259871
									CHANNELS 6 Xposition Yposition Zposition Xrotation Yrotation Zrotation
									JOINT mixamorig:LeftHandIndex2
									{
										OFFSET 3.699989 0.000000 -0.000322
										CHANNELS 6 Xposition Yposition Zposition Xrotation Yrotation Zrotation
										JOINT mixamorig:LeftHandIndex3
										{
											OFFSET 2.850006 0.000000 0.000352
											CHANNELS 6 Xposition Yposition Zposition Xrotation Yrotation Zrotation
											JOINT mixamorig:LeftHandIndex4
											{
												OFFSET 2.774864 -0.000031 -0.000027
												CHANNELS 6 Xposition Yposition Zposition Xrotation Yrotation Zrotation
												End Site
												{
													OFFSET 277.486267 0.000000 -0.009857
												}
											}
										}
									}
								}
								JOINT mixamorig:LeftHandMiddle1
								{
									OFFSET 9.533394 0.000061 0.000044
									CHANNELS 6 Xposition Yposition Zposition Xrotation Yrotation Zrotation
									JOINT mixamorig:LeftHandMiddle2
									{
										OFFSET 3.699989 -0.000015 -0.000231
										CHANNELS 6 Xposition Yposition Zposition Xrotation Yrotation Zrotation
										JOINT mixamorig:LeftHandMiddle3
										{
											OFFSET 2.949997 -0.000015 -0.000059
											CHANNELS 6 Xposition Yposition Zposition Xrotation Yrotation Zrotation
											JOINT mixamorig:LeftHandMiddle4
											{
												OFFSET 2.952896 0.000031 0.000063
												CHANNELS 6 Xposition Yposition Zposition Xrotation Yrotation Zrotation
												End Site
												{
													OFFSET 295.289337 0.000000 0.022810
												}
											}
										}
									}
								}
								JOINT mixamorig:LeftHandRing1
								{
									OFFSET 9.104523 -0.042999 -1.865074
									CHANNELS 6 Xposition Yposition Zposition Xrotation Yrotation Zrotation
									JOINT mixamorig:LeftHandRing2
									{
										OFFSET 3.150009 -0.000031 0.000043
										CHANNELS 6 Xposition Yposition Zposition Xrotation Yrotation Zrotation
										JOINT mixamorig:LeftHandRing3
										{
											OFFSET 2.949982 -0.000015 0.000040
											CHANNELS 6 Xposition Yposition Zposition Xrotation Yrotation Zrotation
											JOINT mixamorig:LeftHandRing4
											{
												OFFSET 2.644348 0.000000 0.000057
												CHANNELS 6 Xposition Yposition Zposition Xrotation Yrotation Zrotation
												End Site
												{
													OFFSET 264.434631 0.000000 0.012105
												}
											}
										}
									}
								}
								JOINT mixamorig:LeftHandPinky1
								{
									OFFSET 8.077789 -0.486847 -3.806259
									CHANNELS 6 Xposition Yposition Zposition Xrotation Yrotation Zrotation
									JOINT mixamorig:LeftHandPinky2
									{
										OFFSET 3.599953 0.000031 0.014727
										CHANNELS 6 Xposition Yposition Zposition Xrotation Yrotation Zrotation
										JOINT mixamorig:LeftHandPinky3
										{
											OFFSET 2.100021 0.000015 0.007705
											CHANNELS 6 Xposition Yposition Zposition Xrotation Yrotation Zrotation
											JOINT mixamorig:LeftHandPinky4
											{
												OFFSET 2.125504 0.000031 0.007517
												CHANNELS 6 Xposition Yposition Zposition Xrotation Yrotation Zrotation
												End Site
												{
													OFFSET 212.550781 0.000000 0.625752
												}
											}
										}
									}
								}
							}
						}
					}
				}
			}
		}
	}
	JOINT mixamorig:RightUpLeg
	{
		OFFSET -8.207787 -6.751648 -1.599560
		CHANNELS 6 Xposition Yposition Zposition Xrotation Yrotation Zrotation
		JOINT mixamorig:RightLeg
		{
			OFFSET -0.000002 -44.370117 0.345942
			CHANNELS 6 Xposition Yposition Zposition Xrotation Yrotation Zrotation
			JOINT mixamorig:RightFoot
			{
				OFFSET 0.000003 -44.423679 -3.043532
				CHANNELS 6 Xposition Yposition Zposition Xrotation Yrotation Zrotation
				JOINT mixamorig:RightToeBase
				{
					OFFSET -0.000002 -8.728671 10.710558
					CHANNELS 6 Xposition Yposition Zposition Xrotation Yrotation Zrotation
					JOINT mixamorig:RightToe_End
					{
						OFFSET -0.000001 -0.000679 9.278119
						CHANNELS 6 Xposition Yposition Zposition Xrotation Yrotation Zrotation
						End Site
						{
							OFFSET 0.000000 -0.067690 927.812134
						}
					}
				}
			}
		}
	}
	JOINT mixamorig:LeftUpLeg
	{
		OFFSET 8.207793 -6.751686 -1.599556
		CHANNELS 6 Xposition Yposition Zposition Xrotation Yrotation Zrotation
		JOINT mixamorig:LeftLeg
		{
			OFFSET -0.000004 -44.370014 0.346954
			CHANNELS 6 Xposition Yposition Zposition Xrotation Yrotation Zrotation
			JOINT mixamorig:LeftFoot
			{
				OFFSET -0.000001 -44.423672 -3.044401
				CHANNELS 6 Xposition Yposition Zposition Xrotation Yrotation Zrotation
				JOINT mixamorig:LeftToeBase
				{
					OFFSET -0.000002 -8.728669 10.710558
					CHANNELS 6 Xposition Yposition Zposition Xrotation Yrotation Zrotation
					JOINT mixamorig:LeftToe_End
					{
						OFFSET -0.000003 -0.000679 9.278133
						CHANNELS 6 Xposition Yposition Zposition Xrotation Yrotation Zrotation
						End Site
						{
							OFFSET 0.000000 -0.068021 927.813477
						}
					}
				}
			}
		}
	}
}
MOTION
Frames: 3
Frame Time: 0.033333
0.000006 104.270477 1.554256 0.000010 0.000003 -0.000113 -0.000005 10.181587 0.131522 0.000001 -0.000003 0.000084 -0.000000 9.893967 -1.470711 0.000001 0.000000 -0.000000 -0.000000 9.220802 -1.370642 0.000000 -0.000000 -0.000000 0.000001 16.740433 -2.049030 0.000000 -0.000000 -0.000000 0.000000 9.617859 1.685014 0.000000 0.000000 0.000000 0.000002 22.037384 7.501101 0.000000 -0.000000 0.000000 -4.569968 11.014880 -2.160881 0.000008 0.000001 -0.000038 -10.592875 -0.524770 -2.231898 75.581712 30.718468 -24.047971 -27.841532 0.000016 0.000539 -54.079228 108.455003 70.627373 -28.328817 0.000004 0.000024 -0.000323 -0.000042 0.000005 -2.464451 -1.573756 2.682338 -48.193760 -171.445739 -10.250626 -3.215274 -1.872585 1.924676 156.338030 30.015143 -6.487999 -2.654941 -1.527895 1.513074 144.608000 27.265581 -38.874353 -2.018831 -1.152014 1.108055 -0.000003 -0.000008 0.000001 -9.108379 -0.517550 2.260126 99.534079 16.133463 -19.074352 -3.700059 0.000323 0.001486 93.867529 12.411991 -13.247061 -2.850073 0.000366 -0.000276 92.147318 9.537674 -9.899274 -2.772173 -0.000017 -0.000017 -0.000003 -0.000000 0.000001 -9.532587 0.000274 0.000216 89.649798 15.195586 -15.244427 -3.700061 0.000335 0.003948 88.048044 11.213090 -10.749090 -2.950038 0.000341 -0.001844 88.423629 10.167149 -9.885800 -2.946638 0.000015 -0.000156 -0.000001 0.000000 -0.000001 -9.103703 -0.042761 -1.864878 87.674528 18.726649 -17.950463 -3.379345 0.000295 -0.000817 88.587021 12.022537 -11.749131 -2.889761 0.000340 0.000611 91.882478 7.915505 -8.226726 -2.638796 -0.000000 0.000939 -0.000000 -0.000000 -0.000002 -8.076740 -0.486405 -3.806095 70.546347 18.627656 -13.123119 -3.600039 0.000229 -0.003575 74.125031 11.326651 -8.285648 -2.100014 0.000299 -0.005541 77.680138 7.212951 -5.629092 -2.115791 -0.000054 -0.003674 -0.000001 0.000003 -0.000003 4.570446 11.014691 -2.160851 -0.000018 0.000010 -0.000021 10.592421 -0.524469 -2.232377 74.208038 -19.853188 15.081544 27.841833 0.000068 -0.000200 105.189544 -70.533977 85.523681 28.328825 -0.000029 0.000024 0.000028 -0.000090 -0.000000 2.466169 -1.576155 2.681872 -8.545711 155.419602 -65.513003 3.217805 -1.871715 1.916377 157.885055 -30.699764 3.217538 2.656106 -1.528631 1.514448 138.831122 -28.224106 43.003609 2.020898 -1.154073 1.115145 0.000004 0.000003 0.000006 9.109370 -0.517835 2.259728 90.510798 -13.632877 13.741617 3.700016 0.000188 -0.000466 88.034698 -11.524202 11.154101 2.850042 0.000180 0.000202 84.089300 -11.120035 10.032943 2.774895 -0.000045 -0.000025 0.000002 0.000001 -0.000000 9.533453 0.000220 -0.000103 86.683208 -14.993061 14.149833 3.700048 0.000167 -0.000397 86.064270 -13.810899 12.898815 2.950059 0.000167 -0.000205 84.196452 -16.167121 14.627741 2.952871 -0.000014 0.000066 0.000001 0.000001 0.000001 9.104591 -0.042862 -1.865223 82.946808 -15.772592 13.962321 3.150050 0.000176 -0.000078 85.688473 -17.452178 16.205184 2.950018 0.000157 -0.000065 87.860261 -17.872921 17.229425 2.644334 0.000032 0.000055 0.000001 -0.000000 -0.000000 8.077839 -0.486774 -3.806403 61.336984 -19.420495 11.964375 3.599994 0.000098 0.014581 60.621255 -18.636690 11.288692 2.100059 0.000123 0.007559 65.318704 -16.357531 10.861157 2.125505 -0.000015 0.007510 -0.000003 0.000001 -0.000004 -8.207786 -6.751667 -1.599560 -0.077001 -0.000003 0.000080 -0.000002 -44.370110 0.345938 0.153719 -0.000000 -0.000000 0.000000 -44.423679 -3.043532 -0.076700 0.000000 -0.000002 -0.000006 -8.728667 10.710559 -0.000009 -0.000000 -0.000000 -0.000001 -0.000679 9.278123 0.000000 -0.000000 -0.000000 8.207792 -6.751710 -1.599556 -0.074518 -0.000003 0.000081 -0.000002 -44.370014 0.346960 0.148822 0.000002 0.000000 -0.000001 -44.423664 -3.044403 -0.074314 0.000000 -0.000002 -0.000004 -8.728671 10.710558 0.000007 -0.000000 -0.000000 0.000000 -0.000680 9.278137 -0.000000 0.000000 -0.000001 
0.000006 104.270477 1.554256 0.000010 0.000003 -0.000113 -0.000005 10.181587 0.131522 0.000001 -0.000003 0.000084 -0.000000 9.893967 -1.470711 0.000001 0.000000 -0.000000 -0.000000 9.220802 -1.370642 0.000000 -0.000000 -0.000000 0.000001 16.740433 -2.049030 0.000000 -0.000000 -0.000000 0.000000 9.617859 1.685014 0.000000 0.000000 0.000000 0.000002 22.037384 7.501101 0.000000 -0.000000 0.000000 -4.569968 11.014880 -2.160881 0.000008 0.000001 -0.000038 -10.592872 -0.524777 -2.231890 77.051009 31.549689 -25.351403 -27.841516 0.000017 0.000539 -51.633102 106.603489 65.973180 -28.328823 0.000009 0.000028 -0.000321 -0.000040 0.000005 -2.464457 -1.573676 2.682292 -54.246875 -177.246401 -31.443018 -3.215274 -1.872576 1.924671 152.972810 30.184915 -4.267848 -2.654927 -1.527894 1.513059 142.985858 27.858545 -34.845238 -2.018823 -1.152014 1.108058 -0.000003 -0.000004 0.000004 -9.108373 -0.517547 2.260112 97.616148 14.469271 -16.558366 -3.700059 0.000326 0.001503 94.598878 11.527711 -12.459970 -2.850073 0.000370 -0.000285 92.622249 9.939144 -10.401315 -2.772172 -0.000003 -0.000021 -0.000001 0.000001 -0.000003 -9.532581 0.000273 0.000213 86.991857 14.746296 -14.133016 -3.700061 0.000331 0.003933 86.862057 10.623139 -9.971497 -2.950045 0.000332 -0.001850 88.113415 10.805428 -10.450526 -2.946624 0.000012 -0.000155 -0.000002 -0.000000 -0.000000 -9.103698 -0.042761 -1.864894 83.903895 18.032236 -16.193858 -3.379341 0.000314 -0.000838 87.578899 10.597622 -10.178187 -2.889769 0.000334 0.000619 93.305336 8.430637 -8.978797 -2.638794 -0.000026 0.000942 0.000007 -0.000001 0.000000 -8.076757 -0.486417 -3.806094 69.563803 20.810545 -14.424724 -3.600053 0.000228 -0.003591 72.188112 12.273392 -8.688842 -2.100012 0.000294 -0.005564 76.763260 7.434147 -5.712453 -2.115745 -0.000055 -0.003678 0.000000 -0.000001 -0.000003 4.570446 11.014691 -2.160851 -0.000018 0.000010 -0.000021 10.592413 -0.524469 -2.232367 73.945158 -17.470987 13.196556 27.841835 0.000051 -0.000189 106.739505 -73.633401 90.389173 28.328810 -0.000028 0.000019 0.000022 -0.000088 -0.000001 2.466189 -1.576152 2.681871 -12.741118 159.868282 -63.333387 3.217841 -1.871773 1.916396 163.234145 -27.597589 18.264288 2.656108 -1.528662 1.514464 140.237062 -27.366609 54.572563 2.020888 -1.154082 1.115144 0.000003 0.000003 0.000001 9.109377 -0.517856 2.259733 88.993376 -17.051386 16.746386 3.700039 0.000174 -0.000475 85.226090 -11.998698 11.060021 2.850043 0.000196 0.000207 83.584959 -9.800071 8.763124 2.774872 -0.000045 -0.000028 0.000001 0.000000 -0.000000 9.533479 0.000195 -0.000104 84.252685 -18.663386 16.898105 3.700032 0.000177 -0.000383 84.372774 -13.000387 11.788959 2.950038 0.000155 -0.000215 84.781110 -12.577397 11.491312 2.952872 -0.000046 0.000065 0.000001 -0.000000 0.000001 9.104590 -0.042873 -1.865215 80.189283 -19.075815 16.105152 3.150038 0.000192 -0.000091 86.651284 -13.696815 12.927331 2.950020 0.000171 -0.000089 88.268379 -11.798753 11.451532 2.644317 0.000030 0.000064 0.000000 -0.000002 0.000000 8.077845 -0.486771 -3.806385 64.455771 -19.728412 12.908795 3.599991 0.000134 0.014585 65.085180 -16.755967 11.085705 2.100040 0.000138 0.007544 68.714852 -12.568975 8.948569 2.125504 0.000001 0.007519 -0.000002 0.000001 0.000003 -8.207786 -6.751667 -1.599560 -0.077001 -0.000003 0.000080 -0.000002 -44.370110 0.345938 0.153719 -0.000000 -0.000000 0.000000 -44.423679 -3.043532 -0.076700 0.000000 -0.000002 -0.000006 -8.728667 10.710559 -0.000009 -0.000000 -0.000000 -0.000001 -0.000679 9.278123 0.000000 -0.000000 -0.000000 8.207792 -6.751710 -1.599556 -0.074518 -0.000003 0.000081 -0.000002 -44.370014 0.346960 0.148822 0.000002 0.000000 -0.000001 -44.423664 -3.044403 -0.074314 0.000000 -0.000002 -0.000004 -8.728671 10.710558 0.000007 -0.000000 -0.000000 0.000000 -0.000680 9.278137 -0.000000 0.000000 -0.000001 
0.000006 104.270477 1.554256 0.000010 0.000003 -0.000113 -0.000005 10.181587 0.131522 0.000001 -0.000003 0.000084 -0.000000 9.893967 -1.470711 0.000001 0.000000 -0.000000 -0.000000 9.220802 -1.370642 0.000000 -0.000000 -0.000000 0.000001 16.740433 -2.049030 0.000000 -0.000000 -0.000000 0.000000 9.617859 1.685014 0.000000 0.000000 0.000000 0.000002 22.037384 7.501101 0.000000 -0.000000 0.000000 -4.569968 11.014880 -2.160881 0.000008 0.000001 -0.000038 -10.592855 -0.524801 -2.231839 77.231476 41.236591 -33.452911 -27.841526 0.000002 0.000568 -50.178637 104.195991 62.044885 -28.328835 0.000007 0.000030 -0.000320 -0.000044 0.000006 -2.464470 -1.573668 2.682265 -55.007202 -179.054680 -35.247659 -3.215289 -1.872596 1.924656 152.515064 30.396015 -2.621009 -2.654965 -1.527891 1.513060 143.783665 27.845605 -32.941248 -2.018834 -1.152005 1.108069 -0.000000 -0.000003 0.000002 -9.108377 -0.517551 2.260113 98.059837 14.241101 -16.424949 -3.700069 0.000321 0.001512 95.230206 11.583990 -12.658943 -2.850082 0.000371 -0.000278 93.197207 9.995365 -10.565163 -2.772192 0.000001 -0.000019 0.000000 -0.000002 -0.000001 -9.532582 0.000276 0.000207 87.288615 14.486990 -13.957704 -3.700061 0.000320 0.003932 87.203935 10.475785 -9.890671 -2.950057 0.000330 -0.001834 88.339303 10.825402 -10.511018 -2.946630 0.000027 -0.000153 0.000004 -0.000002 -0.000004 -9.103697 -0.042756 -1.864902 84.249912 17.307626 -15.633297 -3.379340 0.000309 -0.000826 87.756067 10.182278 -9.809842 -2.889764 0.000347 0.000610 93.412269 8.369167 -8.930287 -2.638815 -0.000013 0.000941 0.000000 0.000000 -0.000001 -8.076742 -0.486410 -3.806089 70.003948 19.818214 -13.837172 -3.600047 0.000239 -0.003582 71.886136 11.742504 -8.255873 -2.100036 0.000296 -0.005560 76.245210 7.263972 -5.526293 -2.115782 -0.000055 -0.003676 -0.000002 -0.000001 -0.000004 4.570446 11.014691 -2.160851 -0.000018 0.000010 -0.000021 10.592446 -0.524468 -2.232399 74.231978 -30.206314 23.085353 27.841824 0.000043 -0.000178 108.725192 -75.509613 94.416082 28.328829 -0.000028 0.000022 0.000020 -0.000089 0.000001 2.466218 -1.576130 2.681860 -7.398101 160.564661 -72.490423 3.217836 -1.871789 1.916389 163.242573 -26.293401 23.713032 2.656090 -1.528684 1.514476 140.287195 -27.383381 53.842760 2.020895 -1.154075 1.115159 0.000001 0.000003 0.000004 9.109395 -0.517856 2.259721 89.045306 -17.720093 17.419433 3.700057 0.000180 -0.000466 85.780339 -12.380089 11.522094 2.850041 0.000192 0.000201 84.122836 -10.162027 9.172993 2.774866 -0.000046 -0.000026 0.000001 0.000001 -0.000001 9.533480 0.000199 -0.000080 84.039426 -19.092120 17.224137 3.700049 0.000161 -0.000387 85.017796 -13.104890 12.018035 2.950054 0.000174 -0.000204 85.911082 -12.551479 11.695201 2.952888 -0.000016 0.000064 0.000003 0.000002 0.000000 9.104608 -0.042876 -1.865223 80.780183 -19.611987 16.731942 3.150049 0.000168 -0.000083 86.686671 -13.916781 13.143196 2.950020 0.000182 -0.000087 88.658253 -11.750641 11.482200 2.644324 0.000044 0.000057 0.000000 -0.000001 0.000000 8.077866 -0.486766 -3.806395 65.012261 -20.261587 13.394766 3.600021 0.000119 0.014591 65.804337 -17.290769 11.590971 2.100027 0.000138 0.007556 69.526934 -13.003029 9.389549 2.125497 -0.000001 0.007515 -0.000001 -0.000001 -0.000000 -8.207786 -6.751667 -1.599560 -0.077001 -0.000003 0.000080 -0.000002 -44.370110 0.345938 0.153719 -0.000000 -0.000000 0.000000 -44.423679 -3.043532 -0.076700 0.000000 -0.000002 -0.000006 -8.728667 10.710559 -0.000009 -0.000000 -0.000000 -0.000001 -0.000679 9.278123 0.000000 -0.000000 -0.000000 8.207792 -6.751710 -1.599556 -0.074518 -0.000003 0.000081 -0.000002 -44.370014 0.346960 0.148822 0.000002 0.000000 -0.000001 -44.423664 -3.044403 -0.074314 0.000000 -0.000002 -0.000004 -8.728671 10.710558 0.000007 -0.000000 -0.000000 0.000000 -0.000680 9.278137 -0.000000 0.000000 -0.000001 
